<svg width="103" height="32" viewBox="0 0 103 32" fill="none" xmlns="http://www.w3.org/2000/svg">
<path d="M39.6758 17.8103V18.4167C39.6758 19.3894 39.5439 20.2624 39.2803 21.0358C39.0166 21.8093 38.6445 22.4685 38.1641 23.0134C37.6836 23.5524 37.1094 23.9655 36.4414 24.2526C35.7793 24.5397 35.0439 24.6833 34.2354 24.6833C33.4326 24.6833 32.6973 24.5397 32.0293 24.2526C31.3672 23.9655 30.793 23.5524 30.3066 23.0134C29.8203 22.4685 29.4424 21.8093 29.1729 21.0358C28.9092 20.2624 28.7773 19.3894 28.7773 18.4167V17.8103C28.7773 16.8317 28.9092 15.9587 29.1729 15.1911C29.4365 14.4177 29.8086 13.7585 30.2891 13.2136C30.7754 12.6687 31.3496 12.2526 32.0117 11.9655C32.6797 11.6784 33.415 11.5349 34.2178 11.5349C35.0264 11.5349 35.7617 11.6784 36.4238 11.9655C37.0918 12.2526 37.666 12.6687 38.1465 13.2136C38.6328 13.7585 39.0078 14.4177 39.2715 15.1911C39.541 15.9587 39.6758 16.8317 39.6758 17.8103ZM37.0127 18.4167V17.7927C37.0127 17.113 36.9512 16.5153 36.8281 15.9997C36.7051 15.4841 36.5234 15.0505 36.2832 14.6989C36.043 14.3474 35.75 14.0837 35.4043 13.9079C35.0586 13.7263 34.6631 13.6355 34.2178 13.6355C33.7725 13.6355 33.377 13.7263 33.0312 13.9079C32.6914 14.0837 32.4014 14.3474 32.1611 14.6989C31.9268 15.0505 31.748 15.4841 31.625 15.9997C31.502 16.5153 31.4404 17.113 31.4404 17.7927V18.4167C31.4404 19.0905 31.502 19.6882 31.625 20.2097C31.748 20.7253 31.9297 21.1618 32.1699 21.5192C32.4102 21.8708 32.7031 22.1374 33.0488 22.319C33.3945 22.5007 33.79 22.5915 34.2354 22.5915C34.6807 22.5915 35.0762 22.5007 35.4219 22.319C35.7676 22.1374 36.0576 21.8708 36.292 21.5192C36.5264 21.1618 36.7051 20.7253 36.8281 20.2097C36.9512 19.6882 37.0127 19.0905 37.0127 18.4167ZM43.9473 17.072V24.5075H41.416V14.9978H43.7979L43.9473 17.072ZM46.8125 14.9362L46.7686 17.2829C46.6455 17.2653 46.4961 17.2507 46.3203 17.239C46.1504 17.2214 45.9951 17.2126 45.8545 17.2126C45.4971 17.2126 45.1865 17.2595 44.9229 17.3532C44.665 17.4411 44.4482 17.573 44.2725 17.7487C44.1025 17.9245 43.9736 18.1384 43.8857 18.3903C43.8037 18.6423 43.7568 18.9294 43.7451 19.2517L43.2354 19.0935C43.2354 18.4782 43.2969 17.9128 43.4199 17.3972C43.543 16.8757 43.7217 16.4216 43.9561 16.0349C44.1963 15.6481 44.4893 15.3493 44.835 15.1384C45.1807 14.9274 45.5762 14.822 46.0215 14.822C46.1621 14.822 46.3057 14.8337 46.4521 14.8571C46.5986 14.8747 46.7188 14.9011 46.8125 14.9362ZM53.8525 14.9978H56.1465V24.1911C56.1465 25.0583 55.9531 25.7937 55.5664 26.3972C55.1855 27.0065 54.6523 27.4665 53.9668 27.7771C53.2812 28.0935 52.4844 28.2517 51.5762 28.2517C51.1777 28.2517 50.7559 28.1989 50.3105 28.0935C49.8711 27.988 49.4492 27.8239 49.0449 27.6013C48.6465 27.3786 48.3125 27.0974 48.043 26.7575L49.1592 25.2634C49.4521 25.6032 49.792 25.8669 50.1787 26.0544C50.5654 26.2478 50.9932 26.3444 51.4619 26.3444C51.9189 26.3444 52.3057 26.2595 52.6221 26.0896C52.9385 25.9255 53.1816 25.6823 53.3516 25.3601C53.5215 25.0437 53.6064 24.6599 53.6064 24.2087V17.195L53.8525 14.9978ZM47.4541 19.8669V19.6823C47.4541 18.9558 47.542 18.2966 47.7178 17.7048C47.8994 17.1071 48.1543 16.5944 48.4824 16.1667C48.8164 15.739 49.2207 15.4079 49.6953 15.1735C50.1699 14.9392 50.7061 14.822 51.3037 14.822C51.9365 14.822 52.4668 14.9392 52.8945 15.1735C53.3223 15.4079 53.6738 15.7419 53.9492 16.1755C54.2246 16.6032 54.4385 17.1101 54.5908 17.696C54.749 18.2761 54.8721 18.9118 54.96 19.6032V20.0075C54.8721 20.6696 54.7402 21.2849 54.5645 21.8532C54.3887 22.4216 54.1572 22.9196 53.8701 23.3474C53.583 23.7692 53.2256 24.0974 52.7979 24.3317C52.376 24.5661 51.8721 24.6833 51.2861 24.6833C50.7002 24.6833 50.1699 24.5632 49.6953 24.323C49.2266 24.0827 48.8252 23.7458 48.4912 23.3122C48.1572 22.8786 47.8994 22.3689 47.7178 21.7829C47.542 21.197 47.4541 20.5583 47.4541 19.8669ZM49.9854 19.6823V19.8669C49.9854 20.2595 50.0234 20.6257 50.0996 20.9655C50.1758 21.3054 50.293 21.6071 50.4512 21.8708C50.6152 22.1286 50.8174 22.3308 51.0576 22.4772C51.3037 22.6179 51.5938 22.6882 51.9277 22.6882C52.3906 22.6882 52.7686 22.5915 53.0615 22.3981C53.3545 22.1989 53.5742 21.9265 53.7207 21.5808C53.8672 21.2351 53.9521 20.8366 53.9756 20.3855V19.2341C53.9639 18.8649 53.9141 18.5339 53.8262 18.2409C53.7383 17.9421 53.6152 17.6872 53.457 17.4763C53.2988 17.2653 53.0938 17.1013 52.8418 16.9841C52.5898 16.8669 52.291 16.8083 51.9453 16.8083C51.6113 16.8083 51.3213 16.8845 51.0752 17.0368C50.835 17.1833 50.6328 17.3855 50.4688 17.6433C50.3105 17.9011 50.1904 18.2058 50.1084 18.5573C50.0264 18.903 49.9854 19.278 49.9854 19.6823ZM63.248 22.363V18.1267C63.248 17.822 63.1982 17.5612 63.0986 17.3444C62.999 17.1218 62.8438 16.9489 62.6328 16.8259C62.4277 16.7028 62.1611 16.6413 61.833 16.6413C61.5518 16.6413 61.3086 16.6911 61.1035 16.7907C60.8984 16.8845 60.7402 17.0222 60.6289 17.2038C60.5176 17.3796 60.4619 17.5876 60.4619 17.8278H57.9307C57.9307 17.4235 58.0244 17.0397 58.2119 16.6765C58.3994 16.3132 58.6719 15.9939 59.0293 15.7185C59.3867 15.4372 59.8115 15.2175 60.3037 15.0593C60.8018 14.9011 61.3584 14.822 61.9736 14.822C62.7119 14.822 63.3682 14.945 63.9424 15.1911C64.5166 15.4372 64.9678 15.8064 65.2959 16.2985C65.6299 16.7907 65.7969 17.406 65.7969 18.1442V22.2136C65.7969 22.7351 65.8291 23.1628 65.8936 23.4968C65.958 23.8249 66.0518 24.112 66.1748 24.3581V24.5075H63.6172C63.4941 24.2497 63.4004 23.9274 63.3359 23.5407C63.2773 23.1481 63.248 22.7556 63.248 22.363ZM63.582 18.7155L63.5996 20.1481H62.1846C61.8506 20.1481 61.5605 20.1862 61.3145 20.2624C61.0684 20.3386 60.8662 20.447 60.708 20.5876C60.5498 20.7224 60.4326 20.8806 60.3564 21.0622C60.2861 21.2439 60.251 21.4431 60.251 21.6599C60.251 21.8767 60.3008 22.073 60.4004 22.2487C60.5 22.4187 60.6436 22.5534 60.8311 22.653C61.0186 22.7468 61.2383 22.7937 61.4902 22.7937C61.8711 22.7937 62.2021 22.7175 62.4834 22.5651C62.7646 22.4128 62.9814 22.2253 63.1338 22.0026C63.292 21.78 63.374 21.569 63.3799 21.3698L64.0479 22.4421C63.9541 22.6823 63.8252 22.9314 63.6611 23.1892C63.5029 23.447 63.3008 23.6901 63.0547 23.9187C62.8086 24.1413 62.5127 24.3259 62.167 24.4724C61.8213 24.613 61.4111 24.6833 60.9365 24.6833C60.333 24.6833 59.7852 24.5632 59.293 24.323C58.8066 24.0769 58.4199 23.7399 58.1328 23.3122C57.8516 22.8786 57.7109 22.3864 57.7109 21.8356C57.7109 21.3376 57.8047 20.8952 57.9922 20.5085C58.1797 20.1218 58.4551 19.7966 58.8184 19.5329C59.1875 19.2634 59.6475 19.0612 60.1982 18.9265C60.749 18.7858 61.3877 18.7155 62.1143 18.7155H63.582ZM70.2266 17.028V24.5075H67.6953V14.9978H70.0684L70.2266 17.028ZM69.8574 19.4187H69.1719C69.1719 18.7155 69.2627 18.0827 69.4443 17.5202C69.626 16.9519 69.8809 16.4685 70.209 16.07C70.5371 15.6657 70.9268 15.3581 71.3779 15.1472C71.835 14.9304 72.3447 14.822 72.9072 14.822C73.3525 14.822 73.7598 14.8864 74.1289 15.0153C74.498 15.1442 74.8145 15.3493 75.0781 15.6306C75.3477 15.9118 75.5527 16.2839 75.6934 16.7468C75.8398 17.2097 75.9131 17.7751 75.9131 18.4431V24.5075H73.3643V18.4343C73.3643 18.0124 73.3057 17.6843 73.1885 17.4499C73.0713 17.2155 72.8984 17.0515 72.6699 16.9577C72.4473 16.8581 72.1719 16.8083 71.8438 16.8083C71.5039 16.8083 71.208 16.8757 70.9561 17.0105C70.71 17.1452 70.5049 17.3327 70.3408 17.573C70.1826 17.8073 70.0625 18.0827 69.9805 18.3991C69.8984 18.7155 69.8574 19.0554 69.8574 19.4187ZM80.5098 14.9978V24.5075H77.9697V14.9978H80.5098ZM77.8115 12.5192C77.8115 12.1501 77.9404 11.8454 78.1982 11.6052C78.4561 11.3649 78.8018 11.2448 79.2354 11.2448C79.6631 11.2448 80.0059 11.3649 80.2637 11.6052C80.5273 11.8454 80.6592 12.1501 80.6592 12.5192C80.6592 12.8884 80.5273 13.1931 80.2637 13.4333C80.0059 13.6735 79.6631 13.7937 79.2354 13.7937C78.8018 13.7937 78.4561 13.6735 78.1982 13.4333C77.9404 13.1931 77.8115 12.8884 77.8115 12.5192ZM86.5303 22.7058C86.8408 22.7058 87.1162 22.6472 87.3564 22.53C87.5967 22.4069 87.7842 22.237 87.9189 22.0202C88.0596 21.7976 88.1328 21.5368 88.1387 21.238H90.5205C90.5146 21.906 90.3359 22.5007 89.9844 23.0222C89.6328 23.5378 89.1611 23.945 88.5693 24.2439C87.9775 24.5368 87.3154 24.6833 86.583 24.6833C85.8447 24.6833 85.2002 24.5603 84.6494 24.3142C84.1045 24.0681 83.6504 23.7282 83.2871 23.2946C82.9238 22.8552 82.6514 22.3454 82.4697 21.7653C82.2881 21.1794 82.1973 20.5524 82.1973 19.8845V19.6296C82.1973 18.9558 82.2881 18.3288 82.4697 17.7487C82.6514 17.1628 82.9238 16.653 83.2871 16.2194C83.6504 15.78 84.1045 15.4372 84.6494 15.1911C85.1943 14.945 85.833 14.822 86.5654 14.822C87.3447 14.822 88.0273 14.9714 88.6133 15.2702C89.2051 15.569 89.668 15.9968 90.002 16.5534C90.3418 17.1042 90.5146 17.7575 90.5205 18.5134H88.1387C88.1328 18.197 88.0654 17.9099 87.9365 17.6521C87.8135 17.3942 87.6318 17.1892 87.3916 17.0368C87.1572 16.8786 86.8672 16.7995 86.5215 16.7995C86.1523 16.7995 85.8506 16.8786 85.6162 17.0368C85.3818 17.1892 85.2002 17.4001 85.0713 17.6696C84.9424 17.9333 84.8516 18.2351 84.7988 18.5749C84.752 18.9089 84.7285 19.2605 84.7285 19.6296V19.8845C84.7285 20.2536 84.752 20.6081 84.7988 20.948C84.8457 21.2878 84.9336 21.5896 85.0625 21.8532C85.1973 22.1169 85.3818 22.3249 85.6162 22.4772C85.8506 22.6296 86.1553 22.7058 86.5303 22.7058ZM94.5195 10.9987V24.5075H91.9883V10.9987H94.5195ZM100.514 14.9978L96.3828 19.7087L94.168 21.9499L93.2451 20.1218L95.0029 17.8894L97.4727 14.9978H100.514ZM97.8857 24.5075L95.0732 20.113L96.8223 18.5837L100.804 24.5075H97.8857Z" fill="#274C5B"/>
<path d="M1.4751 23.8571H11.2154H20.9557" stroke="#7EB693" stroke-width="2" stroke-miterlimit="10"/>
<path d="M3.67578 27.4492L11.2155 27.4492L18.7551 27.4492" stroke="#7EB693" stroke-width="2" stroke-miterlimit="10"/>
<path d="M10.9365 1.19989L10.9365 5.10936L10.9365 9.01882" stroke="#7EB693" stroke-width="2" stroke-miterlimit="10"/>
<path d="M10.9775 8.61905V23.381" stroke="#7EB693" stroke-width="2" stroke-miterlimit="10"/>
<path d="M17.1543 2.90483L10.9775 9.09531" stroke="#7EB693" stroke-width="2" stroke-miterlimit="10"/>
<path d="M19.53 5.2858L10.9775 13.8572" stroke="#7EB693" stroke-width="2" stroke-miterlimit="10"/>
<path d="M20.9554 9.09517L10.9775 18.619" stroke="#7EB693" stroke-width="2" stroke-miterlimit="10"/>
<path d="M21.4306 13.381L10.9775 23.8572" stroke="#7EB693" stroke-width="2" stroke-miterlimit="10"/>
<path d="M21.4307 18.1429L15.729 23.8572" stroke="#7EB693" stroke-width="2" stroke-miterlimit="10"/>
<path d="M1 18.1429L6.70165 23.8572" stroke="#7EB693" stroke-width="2" stroke-miterlimit="10"/>
<path d="M5.27637 2.90483L10.978 9.09531" stroke="#7EB693" stroke-width="2" stroke-miterlimit="10"/>
<path d="M2.90039 5.2858L10.9777 13.8572" stroke="#7EB693" stroke-width="2" stroke-miterlimit="10"/>
<path d="M1.4751 8.61905L10.9778 18.619" stroke="#7EB693" stroke-width="2" stroke-miterlimit="10"/>
<path d="M1 12.9048L10.9779 23.381" stroke="#7EB693" stroke-width="2" stroke-miterlimit="10"/>
<path d="M11.2155 31C5.57418 31 1 26.2794 1 20.4553V11.5447C1 5.72162 5.57418 1 11.2155 1C16.8578 1 21.4309 5.72162 21.4309 11.5447V20.4553C21.4319 26.2794 16.8578 31 11.2155 31Z" stroke="#7EB693" stroke-width="2" stroke-miterlimit="10"/>
</svg>
